<svg width="265" height="24" viewBox="0 0 265 24" fill="none" xmlns="http://www.w3.org/2000/svg">
<path d="M8.23935 9.67401C8.18821 9.15838 7.96875 8.75781 7.58097 8.4723C7.19318 8.18679 6.6669 8.04403 6.00213 8.04403C5.55043 8.04403 5.16903 8.10795 4.85795 8.2358C4.54688 8.35938 4.30824 8.53196 4.14205 8.75355C3.98011 8.97514 3.89915 9.22656 3.89915 9.50781C3.89063 9.74219 3.93963 9.94673 4.04616 10.1214C4.15696 10.2962 4.30824 10.4474 4.5 10.5753C4.69176 10.6989 4.91335 10.8075 5.16477 10.9013C5.41619 10.9908 5.68466 11.0675 5.97017 11.1314L7.14631 11.4126C7.71733 11.5405 8.24148 11.7109 8.71875 11.924C9.19602 12.1371 9.60938 12.3991 9.95881 12.7102C10.3082 13.0213 10.5788 13.3878 10.7706 13.8097C10.9666 14.2315 11.0668 14.7152 11.071 15.2607C11.0668 16.0618 10.8622 16.7564 10.4574 17.3445C10.0568 17.9283 9.47727 18.3821 8.71875 18.706C7.96449 19.0256 7.05469 19.1854 5.98935 19.1854C4.93253 19.1854 4.01207 19.0234 3.22798 18.6996C2.44815 18.3757 1.83878 17.8963 1.39986 17.2614C0.965199 16.6222 0.737216 15.8317 0.715909 14.8899H3.39418C3.42401 15.3288 3.54972 15.6953 3.77131 15.9893C3.99716 16.2791 4.29759 16.4986 4.67259 16.6477C5.05185 16.7926 5.48011 16.8651 5.95739 16.8651C6.42614 16.8651 6.8331 16.7969 7.17827 16.6605C7.5277 16.5241 7.7983 16.3345 7.99006 16.0916C8.18182 15.8487 8.2777 15.5696 8.2777 15.2543C8.2777 14.9602 8.19034 14.7131 8.01562 14.5128C7.84517 14.3125 7.59375 14.142 7.26136 14.0014C6.93324 13.8608 6.53054 13.733 6.05327 13.6179L4.62784 13.2599C3.52415 12.9915 2.6527 12.5717 2.01349 12.0007C1.37429 11.4297 1.05682 10.6605 1.06108 9.69318C1.05682 8.90057 1.26776 8.2081 1.69389 7.61577C2.12429 7.02344 2.71449 6.56108 3.46449 6.22869C4.21449 5.89631 5.06676 5.73011 6.02131 5.73011C6.9929 5.73011 7.84091 5.89631 8.56534 6.22869C9.29403 6.56108 9.8608 7.02344 10.2656 7.61577C10.6705 8.2081 10.8793 8.89418 10.892 9.67401H8.23935ZM15.6813 19.1854C15.0549 19.1854 14.4966 19.0767 14.0066 18.8594C13.5165 18.6378 13.1287 18.3118 12.8432 17.8814C12.562 17.4467 12.4213 16.9055 12.4213 16.2578C12.4213 15.7124 12.5215 15.2543 12.7218 14.8835C12.9221 14.5128 13.1948 14.2145 13.54 13.9886C13.8851 13.7628 14.2772 13.5923 14.7161 13.4773C15.1593 13.3622 15.6238 13.2812 16.1096 13.2344C16.6806 13.1747 17.1408 13.1193 17.4902 13.0682C17.8397 13.0128 18.0932 12.9318 18.2509 12.8253C18.4086 12.7187 18.4874 12.5611 18.4874 12.3523V12.3139C18.4874 11.9091 18.3596 11.5959 18.1039 11.3743C17.8525 11.1527 17.4945 11.0419 17.03 11.0419C16.54 11.0419 16.15 11.1506 15.8603 11.3679C15.5705 11.581 15.3787 11.8494 15.285 12.1733L12.7665 11.9688C12.8944 11.3722 13.1458 10.8565 13.5208 10.4219C13.8958 9.98295 14.3794 9.64631 14.9718 9.41193C15.5684 9.1733 16.2587 9.05398 17.0428 9.05398C17.5882 9.05398 18.1103 9.1179 18.6088 9.24574C19.1117 9.37358 19.557 9.57173 19.9448 9.8402C20.3368 10.1087 20.6458 10.4538 20.8716 10.8757C21.0975 11.2933 21.2104 11.794 21.2104 12.3778V19H18.628V17.6385H18.5513C18.3936 17.9453 18.1827 18.2159 17.9185 18.4503C17.6543 18.6804 17.3368 18.8615 16.9661 18.9936C16.5953 19.1214 16.1671 19.1854 15.6813 19.1854ZM16.4611 17.3061C16.8617 17.3061 17.2154 17.2273 17.5222 17.0696C17.829 16.9077 18.0698 16.6903 18.2445 16.4176C18.4192 16.1449 18.5066 15.8359 18.5066 15.4908V14.4489C18.4213 14.5043 18.3042 14.5554 18.155 14.6023C18.0101 14.6449 17.8461 14.6854 17.6628 14.7237C17.4796 14.7578 17.2963 14.7898 17.1131 14.8196C16.9299 14.8452 16.7637 14.8686 16.6145 14.8899C16.2949 14.9368 16.0158 15.0114 15.7772 15.1136C15.5385 15.2159 15.3532 15.3544 15.2211 15.5291C15.089 15.6996 15.0229 15.9126 15.0229 16.1683C15.0229 16.5391 15.1571 16.8224 15.4256 17.0185C15.6983 17.2102 16.0435 17.3061 16.4611 17.3061ZM26.046 5.90909V19H23.323V5.90909H26.046ZM32.7017 19.1918C31.6918 19.1918 30.8224 18.9872 30.0938 18.5781C29.3693 18.1648 28.8111 17.581 28.419 16.8267C28.027 16.0682 27.831 15.1712 27.831 14.1357C27.831 13.1257 28.027 12.2393 28.419 11.4766C28.8111 10.7138 29.3629 10.1193 30.0746 9.69318C30.7905 9.26705 31.63 9.05398 32.593 9.05398C33.2408 9.05398 33.8438 9.15838 34.402 9.36719C34.9645 9.57173 35.4545 9.88068 35.8722 10.294C36.294 10.7074 36.6222 11.2273 36.8565 11.8537C37.0909 12.4759 37.2081 13.2045 37.2081 14.0398V14.7876H28.9176V13.1001H34.6449C34.6449 12.7081 34.5597 12.3608 34.3892 12.0582C34.2188 11.7557 33.9822 11.5192 33.6797 11.3487C33.3814 11.174 33.0341 11.0866 32.6378 11.0866C32.2244 11.0866 31.858 11.1825 31.5384 11.3743C31.223 11.5618 30.9759 11.8153 30.7969 12.1349C30.6179 12.4503 30.5263 12.8018 30.522 13.1896V14.794C30.522 15.2798 30.6115 15.6996 30.7905 16.0533C30.9737 16.407 31.2315 16.6797 31.5639 16.8714C31.8963 17.0632 32.2905 17.1591 32.7464 17.1591C33.049 17.1591 33.326 17.1165 33.5774 17.0312C33.8288 16.946 34.044 16.8182 34.223 16.6477C34.402 16.4773 34.5384 16.2685 34.6321 16.0213L37.1506 16.1875C37.0227 16.7926 36.7607 17.321 36.3643 17.7727C35.9723 18.2202 35.4652 18.5696 34.843 18.821C34.2251 19.0682 33.5114 19.1918 32.7017 19.1918ZM47.1541 11.9815L44.6612 12.1349C44.6186 11.9219 44.527 11.7301 44.3864 11.5597C44.2457 11.3849 44.0604 11.2464 43.8303 11.1442C43.6044 11.0376 43.3338 10.9844 43.0185 10.9844C42.5966 10.9844 42.2408 11.0739 41.951 11.2528C41.6612 11.4276 41.5163 11.6619 41.5163 11.956C41.5163 12.1903 41.6101 12.3885 41.7976 12.5504C41.9851 12.7124 42.3068 12.8423 42.7628 12.9403L44.5398 13.2983C45.4943 13.4943 46.206 13.8097 46.6747 14.2443C47.1435 14.679 47.3778 15.25 47.3778 15.9574C47.3778 16.6009 47.1882 17.1655 46.8089 17.6513C46.4339 18.1371 45.9183 18.5163 45.2621 18.7891C44.6101 19.0575 43.858 19.1918 43.0057 19.1918C41.706 19.1918 40.6705 18.9212 39.8991 18.38C39.1321 17.8345 38.6825 17.093 38.5504 16.1555L41.2287 16.0149C41.3097 16.4112 41.5057 16.7138 41.8168 16.9226C42.1278 17.1271 42.5263 17.2294 43.0121 17.2294C43.4893 17.2294 43.8729 17.1378 44.1626 16.9545C44.4567 16.767 44.6058 16.5263 44.6101 16.2322C44.6058 15.9851 44.5014 15.7827 44.2969 15.625C44.0923 15.4631 43.777 15.3395 43.3509 15.2543L41.6506 14.9155C40.6918 14.7237 39.978 14.3913 39.5092 13.9183C39.0447 13.4453 38.8125 12.8423 38.8125 12.1094C38.8125 11.4787 38.983 10.9354 39.3239 10.4794C39.669 10.0234 40.1527 9.67188 40.7749 9.42472C41.4013 9.17756 42.1342 9.05398 42.9737 9.05398C44.2138 9.05398 45.1896 9.31605 45.9013 9.8402C46.6172 10.3643 47.0348 11.0781 47.1541 11.9815ZM55.5661 19H52.6001L57.1193 5.90909H60.6861L65.1989 19H62.233L58.9538 8.90057H58.8516L55.5661 19ZM55.3807 13.8544H62.3864V16.0149H55.3807V13.8544ZM69.4464 13.3239V19H66.7234V9.18182H69.3185V10.9141H69.4336C69.6509 10.343 70.0153 9.89133 70.5266 9.55895C71.038 9.2223 71.658 9.05398 72.3867 9.05398C73.0685 9.05398 73.663 9.20312 74.1701 9.50142C74.6772 9.79972 75.0714 10.2259 75.3526 10.7798C75.6339 11.3295 75.7745 11.9858 75.7745 12.7486V19H73.0515V13.2344C73.0558 12.6335 72.9023 12.1648 72.5913 11.8281C72.2802 11.4872 71.8519 11.3168 71.3065 11.3168C70.94 11.3168 70.6161 11.3956 70.3349 11.5533C70.0579 11.7109 69.8406 11.9411 69.6829 12.2436C69.5295 12.5419 69.4506 12.902 69.4464 13.3239ZM80.7203 19.1854C80.0939 19.1854 79.5357 19.0767 79.0456 18.8594C78.5556 18.6378 78.1678 18.3118 77.8823 17.8814C77.601 17.4467 77.4604 16.9055 77.4604 16.2578C77.4604 15.7124 77.5605 15.2543 77.7608 14.8835C77.9611 14.5128 78.2338 14.2145 78.579 13.9886C78.9242 13.7628 79.3162 13.5923 79.7551 13.4773C80.1983 13.3622 80.6628 13.2812 81.1486 13.2344C81.7196 13.1747 82.1799 13.1193 82.5293 13.0682C82.8787 13.0128 83.1323 12.9318 83.29 12.8253C83.4476 12.7187 83.5265 12.5611 83.5265 12.3523V12.3139C83.5265 11.9091 83.3986 11.5959 83.1429 11.3743C82.8915 11.1527 82.5336 11.0419 82.0691 11.0419C81.579 11.0419 81.1891 11.1506 80.8993 11.3679C80.6096 11.581 80.4178 11.8494 80.324 12.1733L77.8056 11.9688C77.9334 11.3722 78.1848 10.8565 78.5598 10.4219C78.9348 9.98295 79.4185 9.64631 80.0108 9.41193C80.6074 9.1733 81.2978 9.05398 82.0819 9.05398C82.6273 9.05398 83.1493 9.1179 83.6479 9.24574C84.1507 9.37358 84.5961 9.57173 84.9838 9.8402C85.3759 10.1087 85.6848 10.4538 85.9107 10.8757C86.1365 11.2933 86.2495 11.794 86.2495 12.3778V19H83.6671V17.6385H83.5904C83.4327 17.9453 83.2218 18.2159 82.9576 18.4503C82.6934 18.6804 82.3759 18.8615 82.0051 18.9936C81.6344 19.1214 81.2061 19.1854 80.7203 19.1854ZM81.5002 17.3061C81.9007 17.3061 82.2544 17.2273 82.5613 17.0696C82.8681 16.9077 83.1088 16.6903 83.2836 16.4176C83.4583 16.1449 83.5456 15.8359 83.5456 15.4908V14.4489C83.4604 14.5043 83.3432 14.5554 83.1941 14.6023C83.0492 14.6449 82.8851 14.6854 82.7019 14.7237C82.5186 14.7578 82.3354 14.7898 82.1522 14.8196C81.9689 14.8452 81.8027 14.8686 81.6536 14.8899C81.334 14.9368 81.0549 15.0114 80.8162 15.1136C80.5776 15.2159 80.3922 15.3544 80.2601 15.5291C80.128 15.6996 80.062 15.9126 80.062 16.1683C80.062 16.5391 80.1962 16.8224 80.4647 17.0185C80.7374 17.2102 81.0826 17.3061 81.5002 17.3061ZM91.085 5.90909V19H88.362V5.90909H91.085ZM94.9474 22.6818C94.6023 22.6818 94.2784 22.6541 93.9759 22.5987C93.6776 22.5476 93.4304 22.4815 93.2344 22.4006L93.848 20.3679C94.1676 20.4659 94.4553 20.5192 94.7109 20.5277C94.9709 20.5362 95.1946 20.4766 95.3821 20.3487C95.5739 20.2209 95.7294 20.0036 95.8487 19.6967L96.0085 19.2812L92.4865 9.18182H95.3501L97.3828 16.392H97.4851L99.5369 9.18182H102.42L98.6037 20.0611C98.4205 20.5895 98.1712 21.0497 97.8558 21.4418C97.5447 21.8381 97.1506 22.1428 96.6733 22.3558C96.196 22.5732 95.6207 22.6818 94.9474 22.6818ZM109.036 9.18182V11.2273H103.123V9.18182H109.036ZM104.465 6.82955H107.188V15.983C107.188 16.2344 107.227 16.4304 107.303 16.571C107.38 16.7074 107.487 16.8033 107.623 16.8587C107.763 16.9141 107.925 16.9418 108.109 16.9418C108.237 16.9418 108.364 16.9311 108.492 16.9098C108.62 16.8842 108.718 16.8651 108.786 16.8523L109.214 18.8786C109.078 18.9212 108.886 18.9702 108.639 19.0256C108.392 19.0852 108.092 19.1214 107.738 19.1342C107.082 19.1598 106.506 19.0724 106.012 18.8722C105.522 18.6719 105.141 18.3608 104.868 17.9389C104.595 17.517 104.461 16.9844 104.465 16.3409V6.82955ZM110.809 19V9.18182H113.532V19H110.809ZM112.177 7.91619C111.772 7.91619 111.425 7.78196 111.135 7.51349C110.85 7.24077 110.707 6.91477 110.707 6.53551C110.707 6.16051 110.85 5.83878 111.135 5.57031C111.425 5.29758 111.772 5.16122 112.177 5.16122C112.582 5.16122 112.927 5.29758 113.213 5.57031C113.502 5.83878 113.647 6.16051 113.647 6.53551C113.647 6.91477 113.502 7.24077 113.213 7.51349C112.927 7.78196 112.582 7.91619 112.177 7.91619ZM120.15 19.1918C119.144 19.1918 118.279 18.9787 117.555 18.5526C116.834 18.1222 116.28 17.5256 115.893 16.7628C115.509 16 115.317 15.1222 115.317 14.1293C115.317 13.1236 115.511 12.2415 115.899 11.483C116.291 10.7202 116.847 10.1257 117.567 9.69957C118.287 9.26918 119.144 9.05398 120.137 9.05398C120.993 9.05398 121.743 9.20952 122.387 9.5206C123.03 9.83168 123.54 10.2685 123.915 10.831C124.29 11.3935 124.496 12.054 124.535 12.8125H121.965C121.893 12.3224 121.701 11.9283 121.39 11.63C121.083 11.3274 120.68 11.1761 120.182 11.1761C119.76 11.1761 119.391 11.2912 119.076 11.5213C118.765 11.7472 118.522 12.0774 118.347 12.5121C118.172 12.9467 118.085 13.473 118.085 14.0909C118.085 14.7173 118.17 15.25 118.341 15.6889C118.515 16.1278 118.76 16.4624 119.076 16.6925C119.391 16.9226 119.76 17.0376 120.182 17.0376C120.493 17.0376 120.772 16.9737 121.019 16.8459C121.27 16.718 121.477 16.5327 121.639 16.2898C121.805 16.0426 121.914 15.7464 121.965 15.4013H124.535C124.492 16.1513 124.287 16.8118 123.921 17.3828C123.559 17.9496 123.058 18.3928 122.419 18.7124C121.78 19.032 121.023 19.1918 120.15 19.1918ZM134.447 11.9815L131.954 12.1349C131.912 11.9219 131.82 11.7301 131.679 11.5597C131.539 11.3849 131.353 11.2464 131.123 11.1442C130.897 11.0376 130.627 10.9844 130.311 10.9844C129.89 10.9844 129.534 11.0739 129.244 11.2528C128.954 11.4276 128.809 11.6619 128.809 11.956C128.809 12.1903 128.903 12.3885 129.091 12.5504C129.278 12.7124 129.6 12.8423 130.056 12.9403L131.833 13.2983C132.787 13.4943 133.499 13.8097 133.968 14.2443C134.436 14.679 134.671 15.25 134.671 15.9574C134.671 16.6009 134.481 17.1655 134.102 17.6513C133.727 18.1371 133.211 18.5163 132.555 18.7891C131.903 19.0575 131.151 19.1918 130.299 19.1918C128.999 19.1918 127.963 18.9212 127.192 18.38C126.425 17.8345 125.975 17.093 125.843 16.1555L128.522 16.0149C128.603 16.4112 128.799 16.7138 129.11 16.9226C129.421 17.1271 129.819 17.2294 130.305 17.2294C130.782 17.2294 131.166 17.1378 131.456 16.9545C131.75 16.767 131.899 16.5263 131.903 16.2322C131.899 15.9851 131.794 15.7827 131.59 15.625C131.385 15.4631 131.07 15.3395 130.644 15.2543L128.944 14.9155C127.985 14.7237 127.271 14.3913 126.802 13.9183C126.338 13.4453 126.105 12.8423 126.105 12.1094C126.105 11.4787 126.276 10.9354 126.617 10.4794C126.962 10.0234 127.446 9.67188 128.068 9.42472C128.694 9.17756 129.427 9.05398 130.267 9.05398C131.507 9.05398 132.483 9.31605 133.194 9.8402C133.91 10.3643 134.328 11.0781 134.447 11.9815ZM145.243 19H140.603V5.90909H145.282C146.598 5.90909 147.732 6.17116 148.682 6.69531C149.632 7.2152 150.363 7.96307 150.875 8.93892C151.39 9.91477 151.648 11.0824 151.648 12.4418C151.648 13.8054 151.39 14.9773 150.875 15.9574C150.363 16.9375 149.628 17.6896 148.669 18.2138C147.715 18.7379 146.573 19 145.243 19ZM143.37 16.6286H145.128C145.946 16.6286 146.635 16.4837 147.193 16.1939C147.755 15.8999 148.177 15.446 148.458 14.8324C148.744 14.2145 148.887 13.4176 148.887 12.4418C148.887 11.4744 148.744 10.6839 148.458 10.0703C148.177 9.45668 147.757 9.00497 147.199 8.7152C146.641 8.42543 145.953 8.28054 145.135 8.28054H143.37V16.6286ZM156.447 19.1854C155.82 19.1854 155.262 19.0767 154.772 18.8594C154.282 18.6378 153.894 18.3118 153.609 17.8814C153.328 17.4467 153.187 16.9055 153.187 16.2578C153.187 15.7124 153.287 15.2543 153.487 14.8835C153.688 14.5128 153.96 14.2145 154.306 13.9886C154.651 13.7628 155.043 13.5923 155.482 13.4773C155.925 13.3622 156.389 13.2812 156.875 13.2344C157.446 13.1747 157.906 13.1193 158.256 13.0682C158.605 13.0128 158.859 12.9318 159.017 12.8253C159.174 12.7187 159.253 12.5611 159.253 12.3523V12.3139C159.253 11.9091 159.125 11.5959 158.869 11.3743C158.618 11.1527 158.26 11.0419 157.796 11.0419C157.306 11.0419 156.916 11.1506 156.626 11.3679C156.336 11.581 156.144 11.8494 156.051 12.1733L153.532 11.9688C153.66 11.3722 153.911 10.8565 154.286 10.4219C154.661 9.98295 155.145 9.64631 155.737 9.41193C156.334 9.1733 157.024 9.05398 157.808 9.05398C158.354 9.05398 158.876 9.1179 159.374 9.24574C159.877 9.37358 160.323 9.57173 160.71 9.8402C161.102 10.1087 161.411 10.4538 161.637 10.8757C161.863 11.2933 161.976 11.794 161.976 12.3778V19H159.394V17.6385H159.317C159.159 17.9453 158.948 18.2159 158.684 18.4503C158.42 18.6804 158.102 18.8615 157.732 18.9936C157.361 19.1214 156.933 19.1854 156.447 19.1854ZM157.227 17.3061C157.627 17.3061 157.981 17.2273 158.288 17.0696C158.595 16.9077 158.835 16.6903 159.01 16.4176C159.185 16.1449 159.272 15.8359 159.272 15.4908V14.4489C159.187 14.5043 159.07 14.5554 158.921 14.6023C158.776 14.6449 158.612 14.6854 158.428 14.7237C158.245 14.7578 158.062 14.7898 157.879 14.8196C157.695 14.8452 157.529 14.8686 157.38 14.8899C157.061 14.9368 156.781 15.0114 156.543 15.1136C156.304 15.2159 156.119 15.3544 155.987 15.5291C155.855 15.6996 155.789 15.9126 155.789 16.1683C155.789 16.5391 155.923 16.8224 156.191 17.0185C156.464 17.2102 156.809 17.3061 157.227 17.3061ZM172.258 11.9815L169.765 12.1349C169.722 11.9219 169.631 11.7301 169.49 11.5597C169.349 11.3849 169.164 11.2464 168.934 11.1442C168.708 11.0376 168.437 10.9844 168.122 10.9844C167.7 10.9844 167.344 11.0739 167.055 11.2528C166.765 11.4276 166.62 11.6619 166.62 11.956C166.62 12.1903 166.714 12.3885 166.901 12.5504C167.089 12.7124 167.41 12.8423 167.866 12.9403L169.643 13.2983C170.598 13.4943 171.309 13.8097 171.778 14.2443C172.247 14.679 172.481 15.25 172.481 15.9574C172.481 16.6009 172.292 17.1655 171.912 17.6513C171.537 18.1371 171.022 18.5163 170.366 18.7891C169.714 19.0575 168.961 19.1918 168.109 19.1918C166.809 19.1918 165.774 18.9212 165.003 18.38C164.236 17.8345 163.786 17.093 163.654 16.1555L166.332 16.0149C166.413 16.4112 166.609 16.7138 166.92 16.9226C167.231 17.1271 167.63 17.2294 168.116 17.2294C168.593 17.2294 168.976 17.1378 169.266 16.9545C169.56 16.767 169.709 16.5263 169.714 16.2322C169.709 15.9851 169.605 15.7827 169.4 15.625C169.196 15.4631 168.881 15.3395 168.454 15.2543L166.754 14.9155C165.795 14.7237 165.081 14.3913 164.613 13.9183C164.148 13.4453 163.916 12.8423 163.916 12.1094C163.916 11.4787 164.086 10.9354 164.427 10.4794C164.773 10.0234 165.256 9.67188 165.878 9.42472C166.505 9.17756 167.238 9.05398 168.077 9.05398C169.317 9.05398 170.293 9.31605 171.005 9.8402C171.721 10.3643 172.138 11.0781 172.258 11.9815ZM176.919 13.3239V19H174.196V5.90909H176.842V10.9141H176.957C177.179 10.3345 177.537 9.88068 178.031 9.55256C178.526 9.22017 179.146 9.05398 179.891 9.05398C180.573 9.05398 181.168 9.20312 181.675 9.50142C182.186 9.79545 182.582 10.2195 182.864 10.7734C183.149 11.3232 183.29 11.9815 183.286 12.7486V19H180.562V13.2344C180.567 12.6293 180.413 12.1584 180.102 11.8217C179.795 11.4851 179.365 11.3168 178.811 11.3168C178.44 11.3168 178.112 11.3956 177.827 11.5533C177.545 11.7109 177.324 11.9411 177.162 12.2436C177.004 12.5419 176.923 12.902 176.919 13.3239ZM185.48 19V5.90909H188.203V10.831H188.286C188.405 10.5668 188.578 10.2983 188.803 10.0256C189.034 9.74858 189.332 9.51847 189.698 9.33523C190.069 9.14773 190.529 9.05398 191.079 9.05398C191.795 9.05398 192.455 9.24148 193.061 9.61648C193.666 9.98722 194.149 10.5476 194.512 11.2976C194.874 12.0433 195.055 12.9787 195.055 14.1037C195.055 15.1989 194.878 16.1236 194.524 16.8778C194.175 17.6278 193.698 18.1967 193.093 18.5845C192.492 18.968 191.818 19.1598 191.073 19.1598C190.544 19.1598 190.095 19.0724 189.724 18.8977C189.357 18.723 189.057 18.5036 188.823 18.2393C188.588 17.9709 188.409 17.7003 188.286 17.4276H188.164V19H185.48ZM188.145 14.0909C188.145 14.6747 188.226 15.1839 188.388 15.6186C188.55 16.0533 188.784 16.392 189.091 16.6349C189.398 16.8736 189.771 16.9929 190.21 16.9929C190.653 16.9929 191.028 16.8714 191.335 16.6286C191.642 16.3814 191.874 16.0405 192.031 15.6058C192.193 15.1669 192.274 14.6619 192.274 14.0909C192.274 13.5241 192.195 13.0256 192.038 12.5952C191.88 12.1648 191.648 11.8281 191.341 11.5852C191.034 11.3423 190.657 11.2209 190.21 11.2209C189.767 11.2209 189.392 11.3381 189.085 11.5724C188.782 11.8068 188.55 12.1392 188.388 12.5696C188.226 13 188.145 13.5071 188.145 14.0909ZM201.308 19.1918C200.315 19.1918 199.456 18.9808 198.732 18.5589C198.012 18.1328 197.456 17.5405 197.064 16.782C196.672 16.0192 196.475 15.1349 196.475 14.1293C196.475 13.1151 196.672 12.2287 197.064 11.4702C197.456 10.7074 198.012 10.1151 198.732 9.69318C199.456 9.26705 200.315 9.05398 201.308 9.05398C202.301 9.05398 203.157 9.26705 203.877 9.69318C204.602 10.1151 205.16 10.7074 205.552 11.4702C205.944 12.2287 206.14 13.1151 206.14 14.1293C206.14 15.1349 205.944 16.0192 205.552 16.782C205.16 17.5405 204.602 18.1328 203.877 18.5589C203.157 18.9808 202.301 19.1918 201.308 19.1918ZM201.321 17.0824C201.772 17.0824 202.15 16.9545 202.452 16.6989C202.755 16.4389 202.983 16.0852 203.136 15.6378C203.294 15.1903 203.373 14.6811 203.373 14.1101C203.373 13.5391 203.294 13.0298 203.136 12.5824C202.983 12.1349 202.755 11.7812 202.452 11.5213C202.15 11.2614 201.772 11.1314 201.321 11.1314C200.865 11.1314 200.481 11.2614 200.17 11.5213C199.863 11.7812 199.631 12.1349 199.473 12.5824C199.32 13.0298 199.243 13.5391 199.243 14.1101C199.243 14.6811 199.32 15.1903 199.473 15.6378C199.631 16.0852 199.863 16.4389 200.17 16.6989C200.481 16.9545 200.865 17.0824 201.321 17.0824ZM210.711 19.1854C210.084 19.1854 209.526 19.0767 209.036 18.8594C208.546 18.6378 208.158 18.3118 207.873 17.8814C207.591 17.4467 207.451 16.9055 207.451 16.2578C207.451 15.7124 207.551 15.2543 207.751 14.8835C207.951 14.5128 208.224 14.2145 208.569 13.9886C208.914 13.7628 209.306 13.5923 209.745 13.4773C210.189 13.3622 210.653 13.2812 211.139 13.2344C211.71 13.1747 212.17 13.1193 212.52 13.0682C212.869 13.0128 213.123 12.9318 213.28 12.8253C213.438 12.7187 213.517 12.5611 213.517 12.3523V12.3139C213.517 11.9091 213.389 11.5959 213.133 11.3743C212.882 11.1527 212.524 11.0419 212.059 11.0419C211.569 11.0419 211.179 11.1506 210.89 11.3679C210.6 11.581 210.408 11.8494 210.314 12.1733L207.796 11.9688C207.924 11.3722 208.175 10.8565 208.55 10.4219C208.925 9.98295 209.409 9.64631 210.001 9.41193C210.598 9.1733 211.288 9.05398 212.072 9.05398C212.618 9.05398 213.14 9.1179 213.638 9.24574C214.141 9.37358 214.586 9.57173 214.974 9.8402C215.366 10.1087 215.675 10.4538 215.901 10.8757C216.127 11.2933 216.24 11.794 216.24 12.3778V19H213.657V17.6385H213.581C213.423 17.9453 213.212 18.2159 212.948 18.4503C212.684 18.6804 212.366 18.8615 211.995 18.9936C211.625 19.1214 211.196 19.1854 210.711 19.1854ZM211.49 17.3061C211.891 17.3061 212.245 17.2273 212.551 17.0696C212.858 16.9077 213.099 16.6903 213.274 16.4176C213.449 16.1449 213.536 15.8359 213.536 15.4908V14.4489C213.451 14.5043 213.333 14.5554 213.184 14.6023C213.039 14.6449 212.875 14.6854 212.692 14.7237C212.509 14.7578 212.326 14.7898 212.142 14.8196C211.959 14.8452 211.793 14.8686 211.644 14.8899C211.324 14.9368 211.045 15.0114 210.806 15.1136C210.568 15.2159 210.382 15.3544 210.25 15.5291C210.118 15.6996 210.052 15.9126 210.052 16.1683C210.052 16.5391 210.186 16.8224 210.455 17.0185C210.728 17.2102 211.073 17.3061 211.49 17.3061ZM218.352 19V9.18182H220.992V10.8949H221.094C221.273 10.2855 221.574 9.82528 221.996 9.5142C222.418 9.19886 222.903 9.04119 223.453 9.04119C223.589 9.04119 223.737 9.04972 223.894 9.06676C224.052 9.08381 224.19 9.10724 224.31 9.13707V11.5533C224.182 11.5149 224.005 11.4808 223.779 11.451C223.553 11.4212 223.347 11.4062 223.159 11.4062C222.759 11.4062 222.401 11.4936 222.085 11.6683C221.774 11.8388 221.527 12.0774 221.344 12.3842C221.165 12.6911 221.075 13.0447 221.075 13.4453V19H218.352ZM228.878 19.1598C228.133 19.1598 227.457 18.968 226.852 18.5845C226.251 18.1967 225.774 17.6278 225.42 16.8778C225.071 16.1236 224.896 15.1989 224.896 14.1037C224.896 12.9787 225.077 12.0433 225.439 11.2976C225.802 10.5476 226.283 9.98722 226.884 9.61648C227.489 9.24148 228.152 9.05398 228.872 9.05398C229.422 9.05398 229.88 9.14773 230.246 9.33523C230.617 9.51847 230.915 9.74858 231.141 10.0256C231.371 10.2983 231.546 10.5668 231.665 10.831H231.748V5.90909H234.465V19H231.78V17.4276H231.665C231.537 17.7003 231.356 17.9709 231.122 18.2393C230.892 18.5036 230.591 18.723 230.221 18.8977C229.854 19.0724 229.407 19.1598 228.878 19.1598ZM229.741 16.9929C230.18 16.9929 230.551 16.8736 230.854 16.6349C231.16 16.392 231.395 16.0533 231.557 15.6186C231.723 15.1839 231.806 14.6747 231.806 14.0909C231.806 13.5071 231.725 13 231.563 12.5696C231.401 12.1392 231.167 11.8068 230.86 11.5724C230.553 11.3381 230.18 11.2209 229.741 11.2209C229.294 11.2209 228.917 11.3423 228.61 11.5852C228.303 11.8281 228.071 12.1648 227.913 12.5952C227.756 13.0256 227.677 13.5241 227.677 14.0909C227.677 14.6619 227.756 15.1669 227.913 15.6058C228.075 16.0405 228.307 16.3814 228.61 16.6286C228.917 16.8714 229.294 16.9929 229.741 16.9929Z" fill="#D72F59"/>
<path d="M253 2.25C251.072 2.25 249.187 2.82183 247.583 3.89317C245.98 4.96451 244.73 6.48726 243.992 8.26884C243.254 10.0504 243.061 12.0108 243.437 13.9021C243.814 15.7934 244.742 17.5307 246.106 18.8943C247.469 20.2579 249.207 21.1865 251.098 21.5627C252.989 21.9389 254.95 21.7458 256.731 21.0078C258.513 20.2699 260.035 19.0202 261.107 17.4168C262.178 15.8134 262.75 13.9284 262.75 12C262.747 9.41498 261.719 6.93661 259.891 5.10872C258.063 3.28084 255.585 2.25273 253 2.25ZM254.5 17.25H253.75V18C253.75 18.1989 253.671 18.3897 253.53 18.5303C253.39 18.671 253.199 18.75 253 18.75C252.801 18.75 252.61 18.671 252.47 18.5303C252.329 18.3897 252.25 18.1989 252.25 18V17.25H251.5C250.704 17.25 249.941 16.9339 249.379 16.3713C248.816 15.8087 248.5 15.0456 248.5 14.25C248.5 14.0511 248.579 13.8603 248.72 13.7197C248.86 13.579 249.051 13.5 249.25 13.5C249.449 13.5 249.64 13.579 249.78 13.7197C249.921 13.8603 250 14.0511 250 14.25C250 14.6478 250.158 15.0294 250.439 15.3107C250.721 15.592 251.102 15.75 251.5 15.75H254.5C254.898 15.75 255.279 15.592 255.561 15.3107C255.842 15.0294 256 14.6478 256 14.25C256 13.8522 255.842 13.4706 255.561 13.1893C255.279 12.908 254.898 12.75 254.5 12.75H251.875C251.079 12.75 250.316 12.4339 249.754 11.8713C249.191 11.3087 248.875 10.5456 248.875 9.75C248.875 8.95435 249.191 8.19129 249.754 7.62868C250.316 7.06607 251.079 6.75 251.875 6.75H252.25V6C252.25 5.80109 252.329 5.61032 252.47 5.46967C252.61 5.32902 252.801 5.25 253 5.25C253.199 5.25 253.39 5.32902 253.53 5.46967C253.671 5.61032 253.75 5.80109 253.75 6V6.75H254.125C254.921 6.75 255.684 7.06607 256.246 7.62868C256.809 8.19129 257.125 8.95435 257.125 9.75C257.125 9.94891 257.046 10.1397 256.905 10.2803C256.765 10.421 256.574 10.5 256.375 10.5C256.176 10.5 255.985 10.421 255.845 10.2803C255.704 10.1397 255.625 9.94891 255.625 9.75C255.625 9.35218 255.467 8.97064 255.186 8.68934C254.904 8.40804 254.523 8.25 254.125 8.25H251.875C251.477 8.25 251.096 8.40804 250.814 8.68934C250.533 8.97064 250.375 9.35218 250.375 9.75C250.375 10.1478 250.533 10.5294 250.814 10.8107C251.096 11.092 251.477 11.25 251.875 11.25H254.5C255.296 11.25 256.059 11.5661 256.621 12.1287C257.184 12.6913 257.5 13.4544 257.5 14.25C257.5 15.0456 257.184 15.8087 256.621 16.3713C256.059 16.9339 255.296 17.25 254.5 17.25Z" fill="#D72F59"/>
</svg>
